<mxfile host="app.diagrams.net" agent="Mozilla/5.0 (Windows NT 10.0; Win64; x64) AppleWebKit/537.36 (KHTML, like Gecko) Chrome/131.0.0.0 Safari/537.36" version="25.0.3">
  <diagram name="Page-1" id="3LoqRQlKmD8Efmw9JES5">
    <mxGraphModel dx="1674" dy="891" grid="1" gridSize="10" guides="1" tooltips="1" connect="1" arrows="1" fold="1" page="1" pageScale="1" pageWidth="850" pageHeight="1100" background="none" math="0" shadow="0">
      <root>
        <mxCell id="0" />
        <mxCell id="1" parent="0" />
        <mxCell id="r40nC3TOqlg5vwa9dV5B-1" style="edgeStyle=orthogonalEdgeStyle;rounded=0;orthogonalLoop=1;jettySize=auto;html=1;exitX=1;exitY=0.5;exitDx=0;exitDy=0;" parent="1" source="bVO54s8G58OKXpP7twtU-1" target="BtDQnkbrZf1uBUTXD--A-5" edge="1">
          <mxGeometry relative="1" as="geometry" />
        </mxCell>
        <mxCell id="bVO54s8G58OKXpP7twtU-1" value="SENSOR MQ4" style="rounded=0;whiteSpace=wrap;html=1;" parent="1" vertex="1">
          <mxGeometry x="350" y="200" width="120" height="60" as="geometry" />
        </mxCell>
        <mxCell id="FITq1yzeocAmjdt3XB5b-1" style="edgeStyle=none;curved=1;rounded=0;orthogonalLoop=1;jettySize=auto;html=1;exitX=0;exitY=0;exitDx=0;exitDy=0;fontSize=12;startSize=8;endSize=8;" parent="1" source="bVO54s8G58OKXpP7twtU-1" target="bVO54s8G58OKXpP7twtU-1" edge="1">
          <mxGeometry relative="1" as="geometry" />
        </mxCell>
        <mxCell id="FITq1yzeocAmjdt3XB5b-5" style="edgeStyle=none;curved=1;rounded=0;orthogonalLoop=1;jettySize=auto;html=1;exitX=0.5;exitY=1;exitDx=0;exitDy=0;entryX=0.5;entryY=0;entryDx=0;entryDy=0;fontSize=12;startSize=8;endSize=8;" parent="1" source="FITq1yzeocAmjdt3XB5b-2" target="FITq1yzeocAmjdt3XB5b-4" edge="1">
          <mxGeometry relative="1" as="geometry" />
        </mxCell>
        <mxCell id="FITq1yzeocAmjdt3XB5b-2" value="Voltage to Current&amp;nbsp;&lt;div&gt;4-20mA&lt;/div&gt;" style="rounded=0;whiteSpace=wrap;html=1;" parent="1" vertex="1">
          <mxGeometry x="540" y="200" width="120" height="60" as="geometry" />
        </mxCell>
        <mxCell id="FITq1yzeocAmjdt3XB5b-43" style="edgeStyle=none;curved=1;rounded=0;orthogonalLoop=1;jettySize=auto;html=1;exitX=1;exitY=0.5;exitDx=0;exitDy=0;fontSize=12;startSize=8;endSize=8;entryX=0;entryY=0.5;entryDx=0;entryDy=0;" parent="1" source="FITq1yzeocAmjdt3XB5b-4" target="FITq1yzeocAmjdt3XB5b-6" edge="1">
          <mxGeometry relative="1" as="geometry">
            <mxPoint x="670" y="427" as="targetPoint" />
          </mxGeometry>
        </mxCell>
        <mxCell id="FITq1yzeocAmjdt3XB5b-4" value="Current 4-20mA to Voltage&amp;nbsp;" style="rounded=0;whiteSpace=wrap;html=1;" parent="1" vertex="1">
          <mxGeometry x="540" y="397" width="120" height="60" as="geometry" />
        </mxCell>
        <mxCell id="FITq1yzeocAmjdt3XB5b-32" style="edgeStyle=none;curved=1;rounded=0;orthogonalLoop=1;jettySize=auto;html=1;exitX=0.5;exitY=1;exitDx=0;exitDy=0;entryX=0.5;entryY=0;entryDx=0;entryDy=0;fontSize=12;startSize=8;endSize=8;" parent="1" source="FITq1yzeocAmjdt3XB5b-6" target="FITq1yzeocAmjdt3XB5b-29" edge="1">
          <mxGeometry relative="1" as="geometry" />
        </mxCell>
        <mxCell id="FITq1yzeocAmjdt3XB5b-35" style="edgeStyle=none;curved=1;rounded=0;orthogonalLoop=1;jettySize=auto;html=1;fontSize=12;startSize=8;endSize=8;exitX=0.162;exitY=0;exitDx=0;exitDy=0;exitPerimeter=0;entryX=0.5;entryY=1;entryDx=0;entryDy=0;" parent="1" source="FITq1yzeocAmjdt3XB5b-6" target="FITq1yzeocAmjdt3XB5b-33" edge="1">
          <mxGeometry relative="1" as="geometry">
            <mxPoint x="794.2499999999999" y="340" as="sourcePoint" />
            <mxPoint x="785.75" y="290" as="targetPoint" />
          </mxGeometry>
        </mxCell>
        <mxCell id="FITq1yzeocAmjdt3XB5b-49" style="edgeStyle=none;curved=1;rounded=0;orthogonalLoop=1;jettySize=auto;html=1;exitX=1;exitY=0.25;exitDx=0;exitDy=0;entryX=0;entryY=0.5;entryDx=0;entryDy=0;fontSize=12;startSize=8;endSize=8;" parent="1" source="FITq1yzeocAmjdt3XB5b-6" target="FITq1yzeocAmjdt3XB5b-48" edge="1">
          <mxGeometry relative="1" as="geometry" />
        </mxCell>
        <mxCell id="FITq1yzeocAmjdt3XB5b-6" value="Arduino Nano V3" style="whiteSpace=wrap;html=1;aspect=fixed;rounded=0;shadow=0;glass=0;strokeWidth=6;" parent="1" vertex="1">
          <mxGeometry x="750" y="350" width="154" height="154" as="geometry" />
        </mxCell>
        <mxCell id="FITq1yzeocAmjdt3XB5b-17" value="&lt;span style=&quot;color: rgb(0, 0, 0); font-family: Helvetica; font-size: 12px; font-style: normal; font-variant-ligatures: normal; font-variant-caps: normal; font-weight: 400; letter-spacing: normal; orphans: 2; text-align: center; text-indent: 0px; text-transform: none; widows: 2; word-spacing: 0px; -webkit-text-stroke-width: 0px; white-space: normal; background-color: rgb(251, 251, 251); text-decoration-thickness: initial; text-decoration-style: initial; text-decoration-color: initial; display: inline !important; float: none;&quot;&gt;4-20mA&lt;/span&gt;" style="text;whiteSpace=wrap;html=1;" parent="1" vertex="1">
          <mxGeometry x="550" y="330" width="80" height="40" as="geometry" />
        </mxCell>
        <mxCell id="FITq1yzeocAmjdt3XB5b-29" value="OLED DISPLAY" style="rounded=0;whiteSpace=wrap;html=1;" parent="1" vertex="1">
          <mxGeometry x="767" y="560" width="120" height="60" as="geometry" />
        </mxCell>
        <mxCell id="FITq1yzeocAmjdt3XB5b-33" value="Buzzer" style="rounded=0;whiteSpace=wrap;html=1;" parent="1" vertex="1">
          <mxGeometry x="740" y="260" width="70" height="30" as="geometry" />
        </mxCell>
        <mxCell id="FITq1yzeocAmjdt3XB5b-37" value="Led Indikator" style="rounded=0;whiteSpace=wrap;html=1;" parent="1" vertex="1">
          <mxGeometry x="990" y="430" width="80" height="60" as="geometry" />
        </mxCell>
        <mxCell id="FITq1yzeocAmjdt3XB5b-44" style="edgeStyle=none;curved=1;rounded=0;orthogonalLoop=1;jettySize=auto;html=1;exitX=0.987;exitY=0.722;exitDx=0;exitDy=0;fontSize=12;startSize=8;endSize=8;entryX=0;entryY=0.5;entryDx=0;entryDy=0;exitPerimeter=0;" parent="1" source="FITq1yzeocAmjdt3XB5b-6" target="FITq1yzeocAmjdt3XB5b-37" edge="1">
          <mxGeometry relative="1" as="geometry">
            <mxPoint x="1000" y="420" as="targetPoint" />
          </mxGeometry>
        </mxCell>
        <mxCell id="FITq1yzeocAmjdt3XB5b-48" value="Relay 1 Chanel" style="rounded=0;whiteSpace=wrap;html=1;" parent="1" vertex="1">
          <mxGeometry x="990" y="360" width="80" height="60" as="geometry" />
        </mxCell>
        <mxCell id="BtDQnkbrZf1uBUTXD--A-2" style="edgeStyle=none;curved=1;rounded=0;orthogonalLoop=1;jettySize=auto;html=1;exitX=0;exitY=0;exitDx=0;exitDy=0;fontSize=12;startSize=8;endSize=8;" parent="1" edge="1">
          <mxGeometry relative="1" as="geometry">
            <mxPoint x="280" y="200" as="sourcePoint" />
            <mxPoint x="280" y="200" as="targetPoint" />
          </mxGeometry>
        </mxCell>
        <mxCell id="BtDQnkbrZf1uBUTXD--A-3" style="edgeStyle=none;curved=1;rounded=0;orthogonalLoop=1;jettySize=auto;html=1;exitX=0.5;exitY=1;exitDx=0;exitDy=0;entryX=0.5;entryY=0;entryDx=0;entryDy=0;fontSize=12;startSize=8;endSize=8;" parent="1" source="BtDQnkbrZf1uBUTXD--A-5" target="BtDQnkbrZf1uBUTXD--A-7" edge="1">
          <mxGeometry relative="1" as="geometry" />
        </mxCell>
        <mxCell id="BtDQnkbrZf1uBUTXD--A-5" value="Voltage to Current&amp;nbsp;&lt;div&gt;4-20mA&lt;/div&gt;" style="rounded=0;whiteSpace=wrap;html=1;" parent="1" vertex="1">
          <mxGeometry x="540" y="200" width="120" height="60" as="geometry" />
        </mxCell>
        <mxCell id="BtDQnkbrZf1uBUTXD--A-7" value="Current 4-20mA to Voltage&amp;nbsp;" style="rounded=0;whiteSpace=wrap;html=1;" parent="1" vertex="1">
          <mxGeometry x="540" y="397" width="120" height="60" as="geometry" />
        </mxCell>
        <mxCell id="BtDQnkbrZf1uBUTXD--A-8" style="edgeStyle=none;curved=1;rounded=0;orthogonalLoop=1;jettySize=auto;html=1;exitX=0.5;exitY=1;exitDx=0;exitDy=0;entryX=0.5;entryY=0;entryDx=0;entryDy=0;fontSize=12;startSize=8;endSize=8;" parent="1" source="BtDQnkbrZf1uBUTXD--A-11" target="BtDQnkbrZf1uBUTXD--A-22" edge="1">
          <mxGeometry relative="1" as="geometry" />
        </mxCell>
        <mxCell id="BtDQnkbrZf1uBUTXD--A-9" style="edgeStyle=none;curved=1;rounded=0;orthogonalLoop=1;jettySize=auto;html=1;fontSize=12;startSize=8;endSize=8;exitX=0.162;exitY=0;exitDx=0;exitDy=0;exitPerimeter=0;entryX=0.5;entryY=1;entryDx=0;entryDy=0;" parent="1" source="BtDQnkbrZf1uBUTXD--A-11" target="BtDQnkbrZf1uBUTXD--A-23" edge="1">
          <mxGeometry relative="1" as="geometry">
            <mxPoint x="794.2499999999999" y="340" as="sourcePoint" />
            <mxPoint x="785.75" y="290" as="targetPoint" />
          </mxGeometry>
        </mxCell>
        <mxCell id="BtDQnkbrZf1uBUTXD--A-10" style="edgeStyle=none;curved=1;rounded=0;orthogonalLoop=1;jettySize=auto;html=1;exitX=1;exitY=0.25;exitDx=0;exitDy=0;entryX=0;entryY=0.5;entryDx=0;entryDy=0;fontSize=12;startSize=8;endSize=8;" parent="1" source="BtDQnkbrZf1uBUTXD--A-11" target="BtDQnkbrZf1uBUTXD--A-26" edge="1">
          <mxGeometry relative="1" as="geometry" />
        </mxCell>
        <mxCell id="BtDQnkbrZf1uBUTXD--A-11" value="ESP32 Wroom" style="whiteSpace=wrap;html=1;aspect=fixed;rounded=0;shadow=0;glass=0;strokeWidth=6;" parent="1" vertex="1">
          <mxGeometry x="750" y="350" width="154" height="154" as="geometry" />
        </mxCell>
        <mxCell id="BtDQnkbrZf1uBUTXD--A-16" value="&lt;span style=&quot;color: rgb(0, 0, 0); font-family: Helvetica; font-size: 12px; font-style: normal; font-variant-ligatures: normal; font-variant-caps: normal; font-weight: 400; letter-spacing: normal; orphans: 2; text-align: center; text-indent: 0px; text-transform: none; widows: 2; word-spacing: 0px; -webkit-text-stroke-width: 0px; white-space: normal; background-color: rgb(251, 251, 251); text-decoration-thickness: initial; text-decoration-style: initial; text-decoration-color: initial; display: inline !important; float: none;&quot;&gt;4-20mA&lt;/span&gt;" style="text;whiteSpace=wrap;html=1;" parent="1" vertex="1">
          <mxGeometry x="550" y="330" width="80" height="40" as="geometry" />
        </mxCell>
        <mxCell id="BtDQnkbrZf1uBUTXD--A-22" value="OLED DISPLAY" style="rounded=0;whiteSpace=wrap;html=1;" parent="1" vertex="1">
          <mxGeometry x="767" y="560" width="120" height="60" as="geometry" />
        </mxCell>
        <mxCell id="BtDQnkbrZf1uBUTXD--A-23" value="Buzzer" style="rounded=0;whiteSpace=wrap;html=1;" parent="1" vertex="1">
          <mxGeometry x="740" y="260" width="70" height="30" as="geometry" />
        </mxCell>
        <mxCell id="BtDQnkbrZf1uBUTXD--A-24" value="Led Indikator" style="rounded=0;whiteSpace=wrap;html=1;" parent="1" vertex="1">
          <mxGeometry x="990" y="430" width="80" height="60" as="geometry" />
        </mxCell>
        <mxCell id="BtDQnkbrZf1uBUTXD--A-25" style="edgeStyle=none;curved=1;rounded=0;orthogonalLoop=1;jettySize=auto;html=1;exitX=0.987;exitY=0.722;exitDx=0;exitDy=0;fontSize=12;startSize=8;endSize=8;entryX=0;entryY=0.5;entryDx=0;entryDy=0;exitPerimeter=0;" parent="1" source="BtDQnkbrZf1uBUTXD--A-11" target="BtDQnkbrZf1uBUTXD--A-24" edge="1">
          <mxGeometry relative="1" as="geometry">
            <mxPoint x="1000" y="420" as="targetPoint" />
          </mxGeometry>
        </mxCell>
        <mxCell id="BtDQnkbrZf1uBUTXD--A-26" value="SD CARD" style="rounded=0;whiteSpace=wrap;html=1;" parent="1" vertex="1">
          <mxGeometry x="990" y="360" width="80" height="60" as="geometry" />
        </mxCell>
        <mxCell id="23SXnxC404AnVRqE3XCi-1" style="edgeStyle=none;curved=1;rounded=0;orthogonalLoop=1;jettySize=auto;html=1;fontSize=12;startSize=8;endSize=8;exitX=0.162;exitY=0;exitDx=0;exitDy=0;exitPerimeter=0;entryX=0.5;entryY=1;entryDx=0;entryDy=0;" edge="1" parent="1" target="23SXnxC404AnVRqE3XCi-2">
          <mxGeometry relative="1" as="geometry">
            <mxPoint x="875" y="350" as="sourcePoint" />
            <mxPoint x="885.75" y="290" as="targetPoint" />
          </mxGeometry>
        </mxCell>
        <mxCell id="23SXnxC404AnVRqE3XCi-2" value="RTC" style="rounded=0;whiteSpace=wrap;html=1;" vertex="1" parent="1">
          <mxGeometry x="840" y="260" width="70" height="30" as="geometry" />
        </mxCell>
      </root>
    </mxGraphModel>
  </diagram>
</mxfile>
